<!-- Generated by IcoMoon.io -->
<svg version="1.1" xmlns="http://www.w3.org/2000/svg" width="57" height="32" viewBox="0 0 57 32">
<title>logo2</title>
<path fill="#afb1b8" d="M26.727 3.165h-0.073c-0.096-0.006-0.213-0.010-0.331-0.012l-0.005-0h-0.243c-0.212 0-0.428 0.005-0.642 0.016-0.007-0-0.016-0.001-0.024-0.001s-0.017 0-0.026 0.001l0.001-0c-1.944 0.11-3.848 0.596-5.609 1.431l-0.231 0.111v11.809l0.54-0.183c0.347-0.127 0.848-0.279 1.356-0.413l0.144-0.032c1.29-0.345 2.774-0.553 4.304-0.574l0.013-0v1.551c-0.193 0.001-0.38 0.007-0.568 0.016h-0.045c-1.212 0.068-2.348 0.25-3.442 0.537l0.12-0.027c-1.503 0.382-2.82 0.91-4.044 1.586l0.087-0.044v-15.145c1.195-0.71 2.577-1.289 4.041-1.664l0.11-0.024c1.278-0.33 2.593-0.5 3.913-0.504h0.228c0.273 0.007 0.538 0.019 0.788 0.038 0.658 0.046 1.31 0.15 1.95 0.311v1.527c-0.544-0.134-1.19-0.235-1.85-0.283l-0.039-0.002-0.039-0.003c-0.132-0.011-0.263-0.022-0.386-0.022zM29.415 4.726c0.339 0.026 0.689 0.038 1.044 0.038 1.464-0.005 2.881-0.198 4.231-0.554l-0.117 0.026c1.503-0.384 2.819-0.912 4.043-1.587l-0.087 0.044v14.875c-1.196 0.71-2.578 1.289-4.043 1.664l-0.11 0.024c-1.173 0.314-2.52 0.497-3.91 0.503h-0.003c-1 0.008-1.997-0.11-2.968-0.35v-14.971c0.229 0.053 0.465 0.102 0.706 0.142 0.394 0.066 0.81 0.115 1.214 0.145zM36.985 4.841l-0.54 0.182c-0.497 0.167-0.997 0.316-1.5 0.449-1.344 0.36-2.888 0.57-4.48 0.575h-0.003c-0.352 0-0.676-0.010-0.989-0.030l-0.43-0.028v12.148l0.37 0.033c0.343 0.030 0.696 0.045 1.052 0.045 1.257-0.006 2.473-0.172 3.631-0.48l-0.1 0.023c0.95-0.238 1.874-0.57 2.759-0.991l0.231-0.111v-11.813zM19.060 24.113c-0.144-0.15-0.346-0.244-0.57-0.244-0.011 0-0.021 0-0.032 0.001l0.002-0c-0.004-0-0.008-0-0.012-0-0.121 0-0.236 0.024-0.341 0.067l0.006-0.002c-0.205 0.082-0.364 0.243-0.442 0.444l-0.002 0.005c-0.039 0.097-0.062 0.209-0.062 0.327 0 0.003 0 0.006 0 0.008v-0 2.023c-0 0.010-0.001 0.022-0.001 0.034 0 0.138 0.030 0.269 0.083 0.387l-0.002-0.006c0.088 0.204 0.262 0.357 0.475 0.414l0.005 0.001c0.098 0.028 0.2 0.042 0.302 0.042 0.463-0.009 0.836-0.386 0.838-0.851v-0.226h-0.529v0.18c0 0.004 0 0.009 0 0.014 0 0.060-0.011 0.117-0.032 0.169l0.001-0.003c-0.018 0.045-0.044 0.083-0.077 0.114l-0 0c-0.061 0.047-0.138 0.075-0.222 0.077h-0c-0.010 0.001-0.021 0.002-0.033 0.002-0.089 0-0.167-0.043-0.216-0.11l-0.001-0.001c-0.044-0.071-0.070-0.158-0.070-0.25 0-0.007 0-0.015 0-0.022l-0 0.001v-1.887c-0-0.006-0-0.013-0-0.020 0-0.103 0.024-0.2 0.067-0.286l-0.002 0.004c0.027-0.043 0.066-0.077 0.112-0.098s0.097-0.030 0.147-0.024c0.003-0 0.007-0 0.010-0 0.092 0 0.174 0.045 0.225 0.113l0.001 0.001c0.059 0.078 0.090 0.173 0.088 0.271v0.175h0.524v-0.206c0-0.001 0-0.003 0-0.004 0-0.244-0.092-0.467-0.243-0.636l0.001 0.001zM22.202 24.090c-0.16-0.138-0.369-0.221-0.599-0.221s-0.439 0.084-0.6 0.222l0.001-0.001c-0.086 0.077-0.156 0.172-0.203 0.278l-0.002 0.005c-0.049 0.111-0.077 0.241-0.077 0.377 0 0.005 0 0.011 0 0.016v-0.001 1.941c-0 0.008-0 0.016-0 0.025 0 0.134 0.028 0.262 0.080 0.378l-0.002-0.006c0.050 0.107 0.119 0.197 0.204 0.27l0.001 0.001c0.078 0.073 0.171 0.131 0.273 0.169l0.006 0.002c0.095 0.037 0.204 0.059 0.319 0.059 0.231 0 0.441-0.087 0.6-0.23l-0.001 0.001c0.083-0.075 0.15-0.165 0.198-0.266l0.002-0.005c0.049-0.11 0.077-0.238 0.077-0.372 0-0.009-0-0.017-0-0.026l0 0.001v-1.941c0-0.005 0-0.012 0-0.018 0-0.135-0.028-0.264-0.080-0.38l0.002 0.006c-0.049-0.111-0.117-0.205-0.2-0.283l-0-0zM21.955 26.706c0.001 0.008 0.001 0.017 0.001 0.027 0 0.099-0.041 0.189-0.106 0.253l-0 0c-0.067 0.057-0.154 0.091-0.249 0.091s-0.182-0.034-0.25-0.091l0.001 0c-0.066-0.064-0.106-0.153-0.106-0.252 0-0.010 0-0.020 0.001-0.029l-0 0.001v-1.941c-0.001-0.008-0.001-0.017-0.001-0.027 0-0.099 0.041-0.189 0.106-0.253l0-0c0.067-0.057 0.154-0.091 0.249-0.091s0.182 0.034 0.25 0.091l-0.001-0c0.066 0.064 0.106 0.153 0.106 0.252 0 0.010-0 0.020-0.001 0.029l0-0.001v1.941zM26.329 27.573v-3.674h-0.509l-0.668 1.945h-0.009l-0.673-1.945h-0.503v3.674h0.525v-2.235h0.009l0.514 1.58h0.262l0.518-1.58h0.009v2.235h0.525zM29.311 24.157c-0.079-0.089-0.179-0.158-0.292-0.199l-0.005-0.002c-0.108-0.036-0.232-0.057-0.361-0.057-0.007 0-0.013 0-0.020 0h-0.779v3.674h0.523v-1.435h0.27c0.013 0.001 0.028 0.001 0.043 0.001 0.157 0 0.304-0.037 0.435-0.103l-0.006 0.003c0.12-0.067 0.217-0.163 0.285-0.277l0.002-0.004c0.058-0.092 0.1-0.199 0.119-0.315l0.001-0.005c0.021-0.138 0.030-0.278 0.028-0.418 0.001-0.018 0.001-0.039 0.001-0.060 0-0.165-0.019-0.325-0.055-0.479l0.003 0.014c-0.037-0.132-0.104-0.246-0.193-0.338l0 0zM29.041 25.277c-0.002 0.070-0.020 0.135-0.050 0.194l0.001-0.003c-0.030 0.057-0.077 0.101-0.133 0.128l-0.002 0.001c-0.064 0.029-0.14 0.047-0.219 0.047-0.010 0-0.019-0-0.029-0.001l0.001 0h-0.239v-1.249h0.27c0.007-0 0.016-0.001 0.024-0.001 0.077 0 0.15 0.017 0.215 0.048l-0.003-0.001c0.054 0.032 0.096 0.078 0.122 0.134l0.001 0.002c0.027 0.060 0.044 0.13 0.046 0.204v0.245c0 0.085 0.005 0.174 0 0.252h-0.005zM31.791 23.899h-0.429l-0.809 3.674h0.523l0.154-0.789h0.714l0.154 0.789h0.524l-0.83-3.674zM31.308 26.283l0.258-1.332h0.009l0.256 1.332h-0.524zM35.173 26.112h-0.009l-0.791-2.213h-0.503v3.674h0.523v-2.209h0.011l0.8 2.209h0.492v-3.674h-0.523v2.213zM38.372 23.899l-0.421 1.461h-0.011l-0.421-1.461h-0.554l0.719 2.121v1.553h0.524v-1.553l0.719-2.121h-0.554zM17.6 28.61h0.252v0.708h0.171v-0.708h0.251v-0.145h-0.675v0.145zM19.721 28.465l-0.331 0.853h0.182l0.070-0.194h0.34l0.073 0.194h0.186l-0.339-0.853h-0.182zM19.694 28.981l0.116-0.316 0.116 0.316h-0.232zM21.818 29.004h0.197v0.11c-0.055 0.044-0.125 0.071-0.202 0.072h-0c-0.034 0.002-0.069-0.004-0.1-0.019s-0.059-0.036-0.081-0.063c-0.040-0.056-0.064-0.126-0.064-0.202 0-0.007 0-0.014 0.001-0.021l-0 0.001c0-0.19 0.082-0.285 0.246-0.285 0.043-0.004 0.086 0.007 0.121 0.032s0.061 0.062 0.072 0.104l0.169-0.033c-0.036-0.167-0.156-0.251-0.362-0.251-0.004-0-0.008-0-0.012-0-0.11 0-0.211 0.042-0.286 0.11l0-0c-0.076 0.075-0.123 0.179-0.123 0.294 0 0.012 0 0.024 0.001 0.035l-0-0.002c-0 0.006-0 0.013-0 0.020 0 0.114 0.041 0.219 0.11 0.3l-0.001-0.001c0.074 0.078 0.179 0.126 0.295 0.126 0.010 0 0.020-0 0.030-0.001l-0.001 0c0.004 0 0.009 0 0.015 0 0.134 0 0.256-0.052 0.348-0.137l-0 0v-0.336h-0.37v0.144zM23.959 28.465h-0.173v0.853h0.598v-0.145h-0.425v-0.708zM25.769 28.465h-0.173v0.853h0.173v-0.853zM27.539 29.035l-0.349-0.57h-0.167v0.853h0.161v-0.557l0.343 0.557h0.171v-0.853h-0.158v0.57zM29.14 28.943h0.425v-0.145h-0.425v-0.187h0.457v-0.145h-0.63v0.853h0.648v-0.145h-0.475v-0.231zM33.020 28.802h-0.336v-0.336h-0.171v0.853h0.171v-0.373h0.336v0.373h0.171v-0.853h-0.171v0.336zM34.629 28.943h0.426v-0.145h-0.426v-0.187h0.459v-0.145h-0.63v0.853h0.646v-0.145h-0.475v-0.231zM36.812 28.943c0.148-0.023 0.224-0.102 0.224-0.237 0.001-0.007 0.001-0.015 0.001-0.024 0-0.068-0.033-0.128-0.085-0.165l-0.001-0c-0.063-0.032-0.137-0.051-0.216-0.051-0.012 0-0.024 0-0.036 0.001l0.002-0h-0.362v0.853h0.171v-0.357h0.034c0.004-0 0.009-0 0.014-0 0.034 0 0.065 0.007 0.094 0.020l-0.001-0.001c0.025 0.016 0.046 0.037 0.061 0.061l0 0.001 0.186 0.271h0.205l-0.104-0.167c-0.047-0.083-0.111-0.152-0.187-0.204l-0.002-0.001zM36.64 28.825h-0.127v-0.214h0.135c0.011-0.001 0.024-0.002 0.037-0.002 0.049 0 0.096 0.008 0.14 0.022l-0.003-0.001c0.012 0.011 0.022 0.025 0.029 0.040 0.006 0.013 0.009 0.028 0.009 0.044 0 0.019-0.005 0.037-0.013 0.053l0-0.001c-0.008 0.015-0.019 0.027-0.032 0.037l-0 0c-0.042 0.013-0.091 0.021-0.142 0.021-0.011 0-0.023-0-0.034-0.001l0.002 0zM38.458 28.943h0.425v-0.145h-0.425v-0.187h0.459v-0.145h-0.631v0.853h0.648v-0.145h-0.475v-0.231z"></path>
</svg>
