<!-- Generated by IcoMoon.io -->
<svg version="1.1" xmlns="http://www.w3.org/2000/svg" width="57" height="32" viewBox="0 0 57 32">
<title>logo5</title>
<path fill="#afb1b8" d="M14.27 23.859c0.13 0.147 0.199 0.332 0.196 0.521 0.007 0.123-0.017 0.247-0.070 0.361s-0.132 0.216-0.233 0.297c-0.252 0.175-0.565 0.26-0.881 0.24h-1.549v-3.302h1.517c0.299-0.018 0.596 0.059 0.84 0.219 0.098 0.075 0.176 0.17 0.227 0.277s0.074 0.224 0.068 0.341c0 0.009 0.001 0.020 0.001 0.031 0 0.182-0.067 0.348-0.177 0.475l0.001-0.001c-0.119 0.13-0.278 0.222-0.457 0.257l-0.005 0.001c0.209 0.034 0.389 0.136 0.522 0.281l0.001 0.001zM12.454 23.36h0.648c0.014 0.001 0.030 0.002 0.047 0.002 0.136 0 0.263-0.042 0.367-0.113l-0.002 0.001c0.049-0.040 0.087-0.090 0.111-0.146s0.034-0.116 0.028-0.176c0.005-0.060-0.005-0.12-0.029-0.175s-0.061-0.106-0.108-0.147c-0.104-0.071-0.233-0.113-0.371-0.113-0.019 0-0.038 0.001-0.056 0.002l0.002-0h-0.638v0.866zM13.578 24.627c0.052-0.041 0.093-0.093 0.12-0.151s0.038-0.121 0.034-0.184c0.004-0.064-0.008-0.127-0.035-0.186s-0.069-0.111-0.121-0.153c-0.111-0.075-0.249-0.12-0.397-0.12-0.015 0-0.030 0-0.045 0.001l0.002-0h-0.68v0.908h0.689c0.012 0.001 0.027 0.001 0.041 0.001 0.146 0 0.283-0.043 0.397-0.117l-0.003 0.002zM17.371 25.278l-0.844-1.291h-0.317v1.291h-0.726v-3.302h1.374c0.346-0.022 0.689 0.078 0.957 0.281 0.192 0.179 0.308 0.415 0.327 0.666s-0.061 0.499-0.224 0.7c-0.17 0.178-0.401 0.296-0.655 0.336l0.898 1.32h-0.789zM16.21 23.538h0.594c0.412 0 0.618-0.167 0.618-0.5 0.001-0.009 0.001-0.020 0.001-0.030 0-0.135-0.058-0.257-0.152-0.34l-0-0c-0.113-0.085-0.256-0.136-0.411-0.136-0.020 0-0.039 0.001-0.059 0.002l0.003-0h-0.601l0.007 1.005zM21.339 24.614h-1.446l-0.255 0.665h-0.761l1.328-3.265h0.823l1.323 3.265h-0.761l-0.25-0.665zM21.145 24.114l-0.529-1.394-0.529 1.394h1.057zM26.305 25.278h-0.721l-1.616-2.245v2.245h-0.719v-3.302h0.719l1.616 2.258v-2.258h0.721v3.302zM30.417 24.488c-0.156 0.254-0.378 0.453-0.643 0.578l-0.009 0.004c-0.28 0.132-0.608 0.209-0.954 0.209-0.021 0-0.042-0-0.063-0.001l0.003 0h-1.283v-3.302h1.283c0.351-0.008 0.698 0.061 1.013 0.203 0.276 0.127 0.503 0.328 0.652 0.576 0.141 0.25 0.225 0.548 0.225 0.866s-0.083 0.616-0.229 0.875l0.005-0.009zM29.593 24.409c0.206-0.219 0.319-0.499 0.319-0.788s-0.113-0.569-0.319-0.788c-0.223-0.177-0.509-0.284-0.82-0.284-0.029 0-0.058 0.001-0.086 0.003l0.004-0h-0.5v2.137h0.5c0.329 0.019 0.654-0.082 0.902-0.281zM21.79 3.609s9.301 3.215 9.103 7.867v7.869s-9.294-3.217-9.1-7.869l-0.004-7.867zM39.179 17.503c1.685-1.069 3.696-1.784 5.855-1.99l0.054-0.004v-2.463c-2.444 0.862-4.517 2.426-5.909 4.457z"></path>
<path fill="#afb1b8" d="M38.124 18.245c1.438-2.651 3.93-4.696 6.964-5.715v-7.098s-13.245 4.58-12.965 11.205v11.203s0.59-0.205 1.519-0.589c0-0.358 0-0.719 0.042-1.082 0.274-3.076 1.871-5.926 4.44-7.924z"></path>
<path fill="#afb1b8" d="M36.864 22.407c0.070-0.777 0.225-1.546 0.463-2.294-1.599 1.725-2.568 3.866-2.77 6.122-0.019 0.213-0.030 0.426-0.035 0.645 1.108-0.485 1.945-0.896 2.765-1.335l-0.217 0.106c-0.158-0.687-0.249-1.477-0.249-2.287 0-0.337 0.016-0.67 0.046-0.999l-0.003 0.042zM37.391 22.447c-0.026 0.272-0.041 0.588-0.041 0.908 0 0.718 0.075 1.42 0.216 2.096l-0.012-0.066c3.619-1.983 7.685-5.046 7.528-8.748v-0.323c-2.585 0.265-5.004 1.3-6.885 2.946-0.415 0.932-0.702 2.014-0.804 3.148l-0.003 0.040z"></path>
</svg>
