<!-- Generated by IcoMoon.io -->
<svg version="1.1" xmlns="http://www.w3.org/2000/svg" width="57" height="32" viewBox="0 0 57 32">
<title>logo6</title>
<path fill="#afb1b8" d="M28.493 14.618c-0.203-0.263-0.326-0.598-0.326-0.961 0-0.035 0.001-0.070 0.003-0.104l-0 0.005v-1.538c0-0.471 0.107-0.83 0.321-1.075s0.581-0.367 1.102-0.366c0.489 0 0.836 0.104 1.042 0.313 0.224 0.266 0.333 0.592 0.308 0.92v0.361h-0.875v-0.366c0.003-0.12-0.005-0.24-0.025-0.358-0.015-0.086-0.061-0.16-0.124-0.213l-0.001-0.001c-0.079-0.053-0.175-0.084-0.279-0.084-0.013 0-0.026 0.001-0.039 0.002l0.002-0c-0.011-0.001-0.024-0.001-0.038-0.001-0.11 0-0.212 0.033-0.297 0.091l0.002-0.001c-0.072 0.058-0.124 0.139-0.145 0.232l-0 0.003c-0.022 0.103-0.034 0.222-0.034 0.344 0 0.013 0 0.025 0 0.038l-0-0.002v1.866c-0.014 0.18 0.025 0.36 0.112 0.524 0.044 0.055 0.104 0.099 0.175 0.127s0.149 0.038 0.226 0.029c0.011 0.001 0.024 0.001 0.037 0.001 0.102 0 0.197-0.032 0.274-0.086l-0.002 0.001c0.067-0.056 0.114-0.135 0.13-0.225l0-0.002c0.020-0.124 0.030-0.249 0.027-0.374v-0.379h0.875v0.346c0.025 0.342-0.082 0.682-0.303 0.967-0.201 0.228-0.544 0.343-1.047 0.343s-0.884-0.122-1.1-0.375zM32.137 14.633c-0.221-0.239-0.332-0.588-0.332-1.050v-1.617c0-0.457 0.11-0.802 0.332-1.037s0.591-0.351 1.109-0.35c0.515 0 0.882 0.117 1.103 0.35 0.221 0.235 0.333 0.58 0.333 1.037v1.617c0 0.457-0.112 0.807-0.337 1.048s-0.591 0.361-1.1 0.361c-0.509 0-0.886-0.122-1.109-0.36zM33.654 14.245c0.067-0.123 0.107-0.27 0.107-0.426 0-0.019-0.001-0.037-0.002-0.055l0 0.002v-1.98c0.001-0.016 0.002-0.034 0.002-0.053 0-0.152-0.039-0.296-0.107-0.421l0.002 0.005c-0.044-0.057-0.106-0.101-0.179-0.129s-0.152-0.037-0.231-0.027c-0.079-0.009-0.159 0-0.231 0.028s-0.135 0.072-0.18 0.129c-0.067 0.119-0.107 0.262-0.107 0.413 0 0.020 0.001 0.039 0.002 0.058l-0-0.003v1.99c-0.001 0.017-0.002 0.037-0.002 0.057 0 0.155 0.040 0.3 0.109 0.427l-0.002-0.005c0.051 0.050 0.114 0.091 0.185 0.119 0.066 0.026 0.142 0.042 0.222 0.042 0.16 0 0.305-0.061 0.414-0.161l-0 0v-0.009zM35.735 10.626h0.942l0.708 2.984 0.725-2.984h0.917l0.092 4.308h-0.678l-0.072-2.994-0.699 2.994h-0.544l-0.725-3.005-0.067 3.005h-0.685l0.085-4.308zM40.176 10.626h1.468c0.846 0 1.268 0.408 1.268 1.223 0 0.781-0.445 1.171-1.335 1.17h-0.5v1.915h-0.906l0.005-4.308zM41.43 12.467c0.023 0.003 0.050 0.004 0.078 0.004 0.159 0 0.305-0.053 0.422-0.142l-0.002 0.001c0.084-0.113 0.134-0.256 0.134-0.41 0-0.027-0.002-0.053-0.005-0.079l0 0.003c0.001-0.015 0.001-0.032 0.001-0.049 0-0.122-0.016-0.24-0.047-0.352l0.002 0.009c-0.013-0.043-0.036-0.083-0.067-0.118s-0.070-0.065-0.114-0.087c-0.105-0.044-0.228-0.070-0.356-0.070-0.017 0-0.033 0-0.050 0.001l0.002-0h-0.352v1.287h0.352zM44.218 10.626h0.973l0.998 4.308h-0.844l-0.197-0.993h-0.868l-0.203 0.993h-0.857l0.998-4.308zM45.050 13.441l-0.339-1.808-0.339 1.808h0.678zM46.996 10.626h0.634l1.214 2.457v-2.457h0.752v4.308h-0.603l-1.221-2.565v2.565h-0.777l0.002-4.308zM51.357 13.291l-1.009-2.659h0.85l0.616 1.708 0.578-1.708h0.832l-0.997 2.659v1.642h-0.87v-1.642zM29.892 16.817v0.225h-0.739v1.75h-0.31v-1.75h-0.743v-0.225h1.792zM32.209 18.793h-0.239c-0.002 0-0.004 0-0.006 0-0.023 0-0.044-0.007-0.061-0.019l0 0c-0.017-0.011-0.031-0.026-0.040-0.044l-0-0.001-0.214-0.469h-1.026l-0.214 0.469c-0.006 0.021-0.018 0.039-0.033 0.053l-0 0c-0.018 0.012-0.039 0.019-0.063 0.019-0.002 0-0.003-0-0.005-0h-0.239l0.906-1.976h0.315l0.917 1.968zM30.709 18.059h0.855l-0.362-0.804c-0.023-0.051-0.046-0.112-0.064-0.176l-0.003-0.010c-0.003 0.006-0.015 0.041-0.026 0.076l-0.008 0.029-0.033 0.083-0.359 0.802zM33.771 18.599c0.025 0.002 0.055 0.003 0.084 0.003 0.082 0 0.161-0.010 0.238-0.028l-0.007 0.001c0.051-0.010 0.094-0.023 0.137-0.038l-0.007 0.002c0.040-0.014 0.080-0.031 0.121-0.048v-0.444h-0.362c-0.009 0-0.018-0.001-0.026-0.003s-0.016-0.007-0.023-0.012c-0.006-0.004-0.011-0.010-0.014-0.016s-0.005-0.013-0.004-0.020v-0.152h0.703v0.757c-0.174 0.108-0.381 0.181-0.603 0.202l-0.006 0c-0.075 0.008-0.162 0.012-0.249 0.012-0.005 0-0.010 0-0.015-0h0.001c-0.003 0-0.006 0-0.009 0-0.16 0-0.314-0.027-0.458-0.076l0.010 0.003c-0.139-0.048-0.26-0.118-0.363-0.207l0.001 0.001c-0.097-0.086-0.176-0.19-0.232-0.307l-0.002-0.006c-0.053-0.117-0.083-0.253-0.083-0.397 0-0.005 0-0.009 0-0.014v0.001c-0.001-0.011-0.001-0.024-0.001-0.037 0-0.275 0.122-0.521 0.316-0.688l0.001-0.001c0.103-0.089 0.227-0.159 0.362-0.205 0.155-0.050 0.32-0.075 0.486-0.074 0.084 0 0.169 0.006 0.252 0.017 0.148 0.021 0.282 0.066 0.403 0.131l-0.006-0.003c0.056 0.031 0.108 0.065 0.158 0.103l-0.087 0.122c-0.007 0.011-0.017 0.021-0.029 0.027s-0.027 0.010-0.041 0.010c-0.021-0.001-0.040-0.006-0.057-0.016l0.001 0c-0.038-0.018-0.067-0.034-0.095-0.050l0.006 0.003c-0.034-0.019-0.074-0.037-0.116-0.051l-0.005-0.002c-0.046-0.017-0.102-0.032-0.16-0.043l-0.007-0.001c-0.065-0.011-0.139-0.017-0.215-0.017-0.005 0-0.011 0-0.016 0h0.001c-0.004-0-0.008-0-0.013-0-0.121 0-0.237 0.020-0.345 0.057l0.007-0.002c-0.199 0.065-0.355 0.211-0.433 0.397l-0.002 0.005c-0.038 0.098-0.061 0.211-0.061 0.329s0.022 0.232 0.063 0.336l-0.002-0.006c0.087 0.19 0.246 0.336 0.441 0.403l0.005 0.002c0.115 0.034 0.237 0.047 0.359 0.039zM36.659 18.567h0.989v0.225h-1.292v-1.976h0.31l-0.007 1.75zM38.678 18.792h-0.31v-1.976h0.31v1.976zM39.83 16.826c0.018 0.009 0.034 0.021 0.047 0.036l0 0 1.324 1.489c-0.001-0.011-0.002-0.023-0.002-0.035s0.001-0.024 0.002-0.037l-0 0.002v-1.472h0.27v1.984h-0.156c-0.003 0-0.007 0-0.011 0-0.020 0-0.039-0.004-0.056-0.012l0.001 0c-0.019-0.010-0.035-0.023-0.049-0.038l-0-0-1.323-1.488v1.536h-0.259v-1.976h0.161c0.017 0 0.035 0.003 0.051 0.009zM43.753 16.817v0.217h-1.098v0.652h0.89v0.21h-0.89v0.674h1.098v0.217h-1.417v-1.971h1.417zM11.286 4.616l13.757 3.372v11.818l-13.757-3.371v-11.819zM10.404 3.609v13.401l15.52 3.806v-13.399l-15.52-3.807z"></path>
<path fill="#afb1b8" d="M18.722 27.036l-15.522-3.809v-13.399l15.522 3.807v13.401z"></path>
<path fill="#afb1b8" d="M10.661 4.465l13.578 3.33-5.774 4.987-13.58-3.332 5.776-4.985zM10.404 3.609l-7.204 6.219 15.522 3.807 7.202-6.219-15.52-3.807zM19.595 26.282l6.329-5.465-6.329-1.553v7.018z"></path>
</svg>
